<svg xmlns="http://www.w3.org/2000/svg" xmlns:xlink="http://www.w3.org/1999/xlink" width="3500" zoomAndPan="magnify" viewBox="0 0 2625 899.99999" height="1200" preserveAspectRatio="xMidYMid meet" version="1.0"><defs><g/><clipPath id="08415cb374"><path d="M 583.398438 11.351562 L 1078.398438 11.351562 L 1078.398438 542.351562 L 583.398438 542.351562 Z M 583.398438 11.351562 " clip-rule="nonzero"/></clipPath></defs><g clip-path="url(#08415cb374)"><path fill="#5ce1e6" d="M 815.292969 64.574219 C 815.726562 64.65625 816.046875 64.15625 815.777344 63.785156 C 810.230469 56.136719 806.269531 47.84375 803.871094 38.933594 C 800.707031 27.160156 798.246094 8.84375 817.570312 11.773438 C 822.84375 12.574219 827.972656 13.910156 832.957031 15.773438 C 889.550781 36.949219 906.449219 51.882812 952.65625 124.484375 C 953.230469 125.386719 954.230469 125.925781 955.300781 125.910156 C 959.472656 125.851562 963.675781 125.929688 967.894531 126.128906 C 1010.476562 128.140625 1036.125 158.703125 1058.839844 190.78125 C 1065.46875 200.144531 1065.535156 208.917969 1059.726562 219.234375 C 1055.457031 226.820312 1051.296875 232.574219 1047.234375 236.480469 C 1031.855469 251.277344 1013.535156 260.492188 992.273438 264.414062 C 991.921875 264.480469 991.636719 264.730469 991.519531 265.066406 L 985.273438 284.589844 C 985.023438 285.378906 985.574219 286.1875 986.394531 286.230469 C 1028.867188 288.558594 1034.246094 287.035156 1053.761719 292.542969 C 1064.847656 295.675781 1083.207031 307.390625 1076.703125 321.042969 C 1073.5625 327.640625 1063.453125 332.152344 1056.089844 332.632812 C 1055.300781 332.683594 1055.070312 333.71875 1055.738281 334.125 C 1065.933594 340.277344 1072.105469 355.046875 1062.738281 365.066406 C 1059 369.066406 1054.332031 371.148438 1048.707031 371.316406 C 1043.550781 371.46875 1039.515625 370.941406 1036.601562 369.742188 C 1026.996094 365.789062 1019.066406 361.664062 1010.929688 360.597656 C 1002.1875 359.453125 994.265625 359.609375 987.167969 361.101562 C 964.863281 365.785156 943.753906 372.734375 924.890625 361.570312 C 924.4375 361.300781 923.855469 361.351562 923.46875 361.703125 C 918.449219 366.234375 915.878906 368.484375 915.796875 368.554688 C 911.078125 372.890625 906.78125 375.296875 902.285156 379.136719 C 900.613281 380.5625 897.882812 382.539062 894.109375 385.046875 C 867.453125 402.777344 840.394531 414.765625 809.292969 419.980469 C 808.390625 420.128906 807.582031 420.628906 807.050781 421.386719 C 800.738281 430.375 793.300781 440.570312 784.410156 447.574219 C 767.308594 461.046875 748.339844 468.8125 727.492188 470.832031 C 720.910156 471.46875 710.527344 471.019531 702.976562 471.886719 C 702.273438 471.96875 701.625 472.292969 701.152344 472.828125 C 698.414062 475.910156 698.632812 478.390625 690.351562 502.96875 C 688.105469 509.648438 682.933594 518.394531 674.644531 529.074219 C 674.097656 529.78125 671.347656 532.175781 666.390625 536.257812 C 656.609375 544.316406 638.3125 546.4375 634.488281 530.464844 C 634.289062 529.628906 633.234375 529.328125 632.613281 529.945312 C 629.972656 532.582031 627.472656 534.6875 625.113281 536.277344 C 612.070312 545.054688 593.15625 542.976562 585.257812 528.773438 C 577.558594 514.933594 596.011719 505.105469 599.222656 498.683594 C 602.425781 492.28125 607.191406 487.492188 622.933594 433.039062 C 628.265625 414.605469 642.054688 414.960938 658.117188 412.191406 C 663.675781 411.234375 666.730469 407.988281 667.292969 402.445312 C 668.929688 386.359375 661.148438 375.289062 661.667969 348.675781 C 661.679688 348.054688 661.25 347.535156 660.664062 347.402344 C 653.332031 345.753906 645.890625 343.925781 639.933594 339.300781 C 631.269531 332.574219 626.554688 323.558594 625.765625 312.269531 C 623.507812 279.941406 659.691406 261.808594 686.953125 283.683594 C 687.375 284.019531 687.960938 283.988281 688.34375 283.617188 C 706.792969 265.980469 728.398438 253.273438 753.148438 245.453125 C 774.097656 238.835938 795.296875 234.683594 816.78125 233.011719 C 837.042969 231.4375 855.644531 228.78125 872.964844 219.632812 C 889.722656 210.777344 888.96875 192.824219 891.082031 177.382812 C 891.492188 174.402344 892.589844 171.609375 894.433594 169.027344 C 894.648438 168.722656 894.480469 168.296875 894.113281 168.226562 C 859.460938 161.550781 825.699219 153 795.816406 136.273438 C 777.007812 125.746094 760.457031 110.34375 746.167969 90.089844 C 741.980469 84.160156 738.648438 78.519531 742.75 72.40625 C 748.113281 64.417969 757.820312 63.847656 768.039062 62.726562 C 783.476562 61.035156 799.25 61.574219 815.292969 64.570312 Z M 942.171875 128.945312 C 943.027344 128.757812 943.414062 127.769531 942.910156 127.050781 C 924.765625 101.222656 932.359375 109.617188 907.792969 77.417969 C 894.503906 59.996094 878.121094 46.683594 858.679688 37.460938 C 845.398438 31.164062 829.972656 24.671875 814.488281 21.304688 C 813.414062 21.070312 812.359375 21.707031 812.058594 22.761719 C 809.609375 31.351562 817.761719 50.035156 822.960938 57.175781 C 824.839844 59.75 827.933594 67.210938 832.824219 68.695312 C 870.714844 80.207031 893.554688 100.132812 924.003906 126.921875 C 925.261719 128.023438 927.136719 129.265625 929.597656 130.652344 C 930.367188 131.089844 931.253906 131.222656 932.125 131.039062 L 942.175781 128.945312 Z M 967.910156 306.378906 L 980.539062 266.941406 C 980.605469 266.742188 980.4375 266.523438 980.21875 266.523438 L 957.878906 266.726562 C 954.964844 266.761719 952.59375 264.414062 952.503906 261.484375 C 952.402344 258.035156 954.980469 255.878906 957.761719 255.992188 C 966.152344 256.339844 972.199219 256.414062 975.898438 256.226562 C 998.074219 255.097656 1017.753906 247.625 1034.945312 233.851562 C 1040.691406 229.25 1045.460938 222.601562 1049.332031 216.335938 C 1051.40625 212.972656 1054.726562 203.808594 1052.210938 199.726562 C 1042.242188 183.542969 1030.214844 169.074219 1016.15625 156.324219 C 1000.644531 142.25 981.210938 135.472656 957.847656 135.960938 C 947.566406 136.179688 939.242188 137.835938 932.863281 140.902344 C 929.832031 142.359375 926.503906 142.472656 924.191406 140.535156 C 923.066406 139.59375 918.652344 135.691406 910.910156 128.828125 C 904.636719 123.265625 898.839844 119.398438 893.949219 114.378906 C 888.105469 108.378906 879.933594 103.023438 873.183594 98.636719 C 840.34375 77.289062 804.257812 68.746094 764.886719 73.050781 C 760.617188 73.519531 756.515625 74.664062 752.613281 76.46875 C 751.273438 77.085938 750.789062 78.726562 751.574219 79.984375 C 765.738281 102.664062 781.03125 115.726562 802.867188 129.082031 C 808.375 132.449219 813.179688 133.957031 818.558594 136.632812 C 821.921875 138.308594 825.957031 139.921875 830.679688 141.476562 C 854.96875 149.457031 880.503906 155.691406 907.261719 160.296875 C 909.101562 160.613281 911.457031 161.566406 914.359375 163.109375 C 914.960938 163.433594 915.214844 164.167969 914.945312 164.785156 L 912.667969 170.195312 C 912.25 171.183594 911.261719 171.835938 910.191406 171.835938 L 904.664062 171.835938 C 904.195312 171.835938 903.765625 172.089844 903.558594 172.503906 C 900.714844 178.25 900.429688 183.257812 899.15625 193.539062 C 896.609375 214.101562 886.632812 226.445312 867.304688 233.609375 C 854.460938 238.367188 841.902344 241.0625 827 242.382812 C 784.75 246.132812 741.421875 253.558594 708.390625 279.523438 C 682.277344 300.046875 670.265625 327.132812 672.371094 360.742188 C 672.886719 369.015625 674.402344 375.144531 676.019531 383.480469 C 677.503906 391.121094 678.4375 400.867188 677.210938 406.007812 C 673.175781 422.90625 656.144531 422.246094 644.386719 424.84375 C 638.410156 426.164062 634.589844 429.882812 632.949219 435.996094 C 629.148438 450.164062 623.488281 467.101562 616.023438 486.820312 C 613.722656 492.894531 610.746094 498.824219 607.097656 504.570312 C 603.648438 509.996094 598.605469 514.667969 594.46875 519.542969 C 593.53125 520.644531 593.347656 522.207031 594 523.496094 C 598.351562 532.070312 608.703125 533.050781 616.609375 529.289062 C 629.316406 523.238281 637.078125 510.230469 643.921875 497.171875 C 647.503906 490.332031 651.632812 471.828125 655.492188 466.675781 C 658.917969 462.101562 662.222656 459.140625 665.390625 457.785156 C 672.4375 454.765625 678.667969 453.199219 684.109375 453.0625 C 713.300781 452.320312 738.5625 445.824219 758.914062 423.675781 C 770.882812 410.644531 778.914062 395.25 783.109375 377.523438 C 783.628906 375.34375 783.996094 370.441406 784.199219 362.804688 C 784.269531 360.15625 786.695312 358.199219 789.304688 358.667969 L 789.457031 358.6875 C 792.320312 359.222656 794.359375 361.769531 794.230469 364.679688 C 793.101562 389.644531 785.183594 400.554688 781.503906 412.773438 C 781.355469 413.261719 781.738281 413.746094 782.242188 413.714844 C 823.890625 410.859375 861.5625 396.757812 895.308594 371.75 C 899.875 368.363281 909.308594 362.722656 913.089844 356.828125 C 913.378906 356.378906 913.339844 355.792969 913.007812 355.390625 C 910.699219 352.625 908.28125 350.554688 905.757812 349.160156 C 905.152344 348.828125 904.652344 348.371094 904.265625 347.804688 L 897.53125 337.957031 C 896.242188 336.058594 896.515625 333.285156 899.058594 331.628906 C 901.195312 330.230469 904.046875 330.65625 905.589844 332.699219 C 909.183594 337.460938 912.019531 340.839844 914.09375 342.863281 C 927.292969 355.722656 943.4375 360.101562 962.457031 355.960938 C 967.582031 354.847656 975.652344 353.269531 986.667969 351.238281 C 1002.527344 348.316406 1017.523438 350.296875 1031.648438 357.183594 C 1039.113281 360.824219 1050.578125 364.957031 1056.699219 357.066406 C 1059.703125 353.203125 1053.671875 345.324219 1050.972656 342.800781 C 1039.699219 332.253906 1026.492188 326.414062 1011.386719 325.347656 C 991.246094 323.929688 982.054688 326.410156 965.152344 318.433594 C 964.230469 318 963.390625 317.347656 962.722656 316.558594 C 959.734375 313.03125 955.722656 310.882812 955.457031 305.371094 C 955.152344 299.144531 961.808594 299.488281 964.699219 303.230469 C 966.160156 305.121094 967.003906 306.214844 967.242188 306.511719 C 967.4375 306.75 967.8125 306.679688 967.910156 306.394531 Z M 636.097656 316.207031 C 637.546875 323.394531 643.664062 331.832031 650.949219 334.34375 C 653.476562 335.214844 656.875 336.203125 661.132812 337.257812 C 661.820312 337.429688 662.488281 337.007812 662.640625 336.320312 C 664.339844 328.550781 666.734375 320.964844 669.839844 313.5625 C 672.945312 306.164062 676.644531 299.117188 681.0625 292.496094 C 681.441406 291.925781 681.265625 291.136719 680.675781 290.769531 C 676.941406 288.453125 673.863281 286.734375 671.46875 285.527344 C 664.589844 282.074219 654.273438 283.625 648.125 287.625 C 638.410156 293.933594 633.742188 304.539062 636.101562 316.207031 Z M 981.074219 295.996094 L 975.546875 310.484375 C 975.328125 311.019531 975.496094 311.640625 975.949219 312.023438 C 978.574219 314.246094 980.988281 313.449219 1012.417969 315.285156 C 1022.617188 315.882812 1032.152344 318.472656 1041.054688 323.007812 C 1042.375 323.679688 1043.867188 323.949219 1045.339844 323.777344 C 1052.007812 323.003906 1057.648438 321.9375 1062.269531 320.597656 C 1067.226562 319.160156 1069.25 316.097656 1066.035156 311.835938 C 1058.574219 301.949219 1036.648438 298.320312 1024.792969 298.089844 C 983.886719 297.296875 981.609375 294.5625 981.070312 295.996094 Z M 792.9375 422.679688 L 773.796875 424.167969 C 772.855469 424.238281 771.984375 424.6875 771.386719 425.40625 C 752.835938 447.585938 728.835938 459.703125 699.34375 461.695312 C 694.890625 461.996094 688.257812 462.601562 679.433594 463.488281 C 669.789062 464.460938 663.636719 469.3125 660.996094 478.054688 C 656.296875 493.625 652.507812 504.433594 645.4375 515.851562 C 643.832031 518.445312 641.402344 528.175781 645.640625 530.46875 C 655.722656 535.925781 661.167969 526.253906 667.578125 520.789062 C 669.070312 519.519531 670.359375 518.03125 671.398438 516.367188 C 681.570312 500.066406 682.328125 495.105469 688.996094 473.984375 C 690.609375 468.878906 693.804688 465.277344 698.542969 463.082031 C 700.15625 462.335938 699.078125 462.941406 722.992188 461.089844 C 752.078125 458.835938 775.582031 446.34375 793.421875 423.597656 C 793.722656 423.214844 793.421875 422.644531 792.9375 422.675781 Z M 792.9375 422.679688 " fill-opacity="1" fill-rule="nonzero"/></g><path fill="#5ce1e6" d="M 918.496094 155.570312 C 916.53125 158.246094 911.328125 156.757812 907.425781 156.054688 C 885.472656 152.109375 862.5625 146.25 838.667969 138.453125 C 835.285156 137.351562 829.609375 135.039062 821.636719 131.539062 C 805.261719 124.351562 791.136719 113.125 779.855469 99.773438 C 777.410156 96.878906 774.726562 94.261719 773.222656 90.78125 C 772.488281 89.074219 773.113281 87.070312 774.699219 86.074219 C 777.433594 84.359375 780.289062 83.289062 783.253906 82.890625 C 813.710938 78.808594 842.351562 89.339844 867.886719 106.503906 C 884.601562 117.738281 900.601562 130.773438 915.863281 145.671875 C 918.796875 148.53125 921.234375 151.832031 918.492188 155.570312 Z M 900.261719 143.863281 C 899.925781 143.175781 899.273438 142.441406 898.316406 141.652344 C 884.140625 129.945312 871.171875 120.351562 859.402344 112.902344 C 836.363281 98.328125 814.039062 90.484375 787.109375 91.917969 C 786.707031 91.941406 786.503906 92.425781 786.757812 92.738281 C 795.769531 103.953125 806.503906 112.664062 818.675781 119.113281 C 842.324219 131.648438 872.472656 139.691406 899.640625 144.667969 C 900.09375 144.75 900.460938 144.28125 900.261719 143.863281 Z M 900.261719 143.863281 " fill-opacity="1" fill-rule="nonzero"/><path fill="#5ce1e6" d="M 991.210938 173.351562 C 995.40625 172.648438 999.429688 175.730469 1000.191406 180.238281 C 1000.953125 184.753906 998.171875 188.996094 993.976562 189.699219 C 989.785156 190.402344 985.761719 187.320312 985 182.808594 C 984.238281 178.292969 987.019531 174.054688 991.210938 173.351562 Z M 991.210938 173.351562 " fill-opacity="1" fill-rule="nonzero"/><g fill="#5ce1e6" fill-opacity="1"><g transform="translate(92.920198, 778.216914)"><g><path d="M 106.3125 -141.890625 L 106.3125 0 L 25.71875 0 L 25.71875 -353.65625 L 106.3125 -353.65625 L 106.3125 -212.625 L 220.34375 -212.625 L 220.34375 -353.65625 L 300.921875 -353.65625 L 300.921875 0 L 220.34375 0 L 220.34375 -141.890625 Z M 106.3125 -141.890625 "/></g></g></g><g fill="#5ce1e6" fill-opacity="1"><g transform="translate(419.566143, 778.216914)"><g><path d="M 33 -342.5 C 41.863281 -351.363281 52.4375 -355.796875 64.71875 -355.796875 C 77.007812 -355.796875 87.582031 -351.363281 96.4375 -342.5 C 105.300781 -333.644531 109.734375 -323.070312 109.734375 -310.78125 C 109.734375 -298.5 105.300781 -287.925781 96.4375 -279.0625 C 87.582031 -270.207031 77.007812 -265.78125 64.71875 -265.78125 C 52.4375 -265.78125 41.863281 -270.207031 33 -279.0625 C 24.144531 -287.925781 19.71875 -298.5 19.71875 -310.78125 C 19.71875 -323.070312 24.144531 -333.644531 33 -342.5 Z M 25.71875 -219.90625 L 25.71875 0 L 101.59375 0 L 101.59375 -219.90625 Z M 25.71875 -219.90625 "/></g></g></g><g fill="#5ce1e6" fill-opacity="1"><g transform="translate(549.024267, 778.216914)"><g><path d="M 15.859375 54.015625 L 78.015625 23.578125 C 89.453125 42.441406 109.316406 51.875 137.609375 51.875 C 150.753906 51.875 162.96875 47.65625 174.25 39.21875 C 185.539062 30.789062 191.1875 17.859375 191.1875 0.421875 L 191.1875 -15.859375 C 177.757812 -0.992188 153.753906 6.4375 119.171875 6.4375 C 87.453125 6.4375 61.300781 -4.78125 40.71875 -27.21875 C 20.144531 -49.65625 9.859375 -77.160156 9.859375 -109.734375 C 9.859375 -142.316406 20.144531 -169.894531 40.71875 -192.46875 C 61.300781 -215.050781 87.453125 -226.34375 119.171875 -226.34375 C 147.460938 -226.34375 171.039062 -217.625 189.90625 -200.1875 L 191.1875 -200.1875 L 191.1875 -219.90625 L 267.0625 -219.90625 L 267.0625 6 C 267.0625 41.71875 255.203125 69.296875 231.484375 88.734375 C 207.765625 108.171875 176.472656 117.890625 137.609375 117.890625 C 74.734375 117.890625 34.148438 96.597656 15.859375 54.015625 Z M 105.234375 -147.03125 C 95.378906 -137.3125 90.453125 -124.878906 90.453125 -109.734375 C 90.453125 -94.585938 95.164062 -82.226562 104.59375 -72.65625 C 114.019531 -63.082031 126.453125 -58.296875 141.890625 -58.296875 C 156.753906 -58.296875 168.972656 -63.15625 178.546875 -72.875 C 188.117188 -82.59375 192.90625 -94.878906 192.90625 -109.734375 C 192.90625 -124.878906 187.972656 -137.3125 178.109375 -147.03125 C 168.253906 -156.75 156.179688 -161.609375 141.890625 -161.609375 C 127.316406 -161.609375 115.097656 -156.75 105.234375 -147.03125 Z M 105.234375 -147.03125 "/></g></g></g><g fill="#5ce1e6" fill-opacity="1"><g transform="translate(841.805411, 778.216914)"><g><path d="M 25.71875 0 L 25.71875 -368.65625 L 101.59375 -368.65625 L 101.59375 -196.765625 L 102.453125 -196.765625 C 122.171875 -216.484375 143.175781 -226.34375 165.46875 -226.34375 C 176.320312 -226.34375 187.109375 -224.910156 197.828125 -222.046875 C 208.546875 -219.191406 218.832031 -214.765625 228.6875 -208.765625 C 238.550781 -202.765625 246.554688 -194.257812 252.703125 -183.25 C 258.847656 -172.25 261.921875 -159.460938 261.921875 -144.890625 L 261.921875 0 L 186.046875 0 L 186.046875 -124.3125 C 186.046875 -135.75 182.398438 -145.753906 175.109375 -154.328125 C 167.828125 -162.898438 158.328125 -167.1875 146.609375 -167.1875 C 135.171875 -167.1875 124.804688 -162.753906 115.515625 -153.890625 C 106.234375 -145.035156 101.59375 -135.175781 101.59375 -124.3125 L 101.59375 0 Z M 25.71875 0 "/></g></g></g><g fill="#ffffff" fill-opacity="1"><g transform="translate(1125.166242, 778.216914)"><g><path d="M 25.71875 0 L 25.71875 -368.65625 L 101.59375 -368.65625 L 101.59375 0 Z M 25.71875 0 "/></g></g></g><g fill="#ffffff" fill-opacity="1"><g transform="translate(1252.480992, 778.216914)"><g><path d="M 33 -342.5 C 41.863281 -351.363281 52.4375 -355.796875 64.71875 -355.796875 C 77.007812 -355.796875 87.582031 -351.363281 96.4375 -342.5 C 105.300781 -333.644531 109.734375 -323.070312 109.734375 -310.78125 C 109.734375 -298.5 105.300781 -287.925781 96.4375 -279.0625 C 87.582031 -270.207031 77.007812 -265.78125 64.71875 -265.78125 C 52.4375 -265.78125 41.863281 -270.207031 33 -279.0625 C 24.144531 -287.925781 19.71875 -298.5 19.71875 -310.78125 C 19.71875 -323.070312 24.144531 -333.644531 33 -342.5 Z M 25.71875 -219.90625 L 25.71875 0 L 101.59375 0 L 101.59375 -219.90625 Z M 25.71875 -219.90625 "/></g></g></g><g fill="#ffffff" fill-opacity="1"><g transform="translate(1381.939153, 778.216914)"><g><path d="M 25.71875 0 L 25.71875 -219.90625 L 101.59375 -219.90625 L 101.59375 -196.765625 L 102.453125 -196.765625 C 122.171875 -216.484375 143.175781 -226.34375 165.46875 -226.34375 C 176.320312 -226.34375 187.109375 -224.910156 197.828125 -222.046875 C 208.546875 -219.191406 218.832031 -214.765625 228.6875 -208.765625 C 238.550781 -202.765625 246.554688 -194.257812 252.703125 -183.25 C 258.847656 -172.25 261.921875 -159.460938 261.921875 -144.890625 L 261.921875 0 L 186.046875 0 L 186.046875 -124.3125 C 186.046875 -135.75 182.398438 -145.753906 175.109375 -154.328125 C 167.828125 -162.898438 158.328125 -167.1875 146.609375 -167.1875 C 135.171875 -167.1875 124.804688 -162.753906 115.515625 -153.890625 C 106.234375 -145.035156 101.59375 -135.175781 101.59375 -124.3125 L 101.59375 0 Z M 25.71875 0 "/></g></g></g><g fill="#ffffff" fill-opacity="1"><g transform="translate(1665.289498, 778.216914)"><g><path d="M 15.859375 54.015625 L 78.015625 23.578125 C 89.453125 42.441406 109.316406 51.875 137.609375 51.875 C 150.753906 51.875 162.96875 47.65625 174.25 39.21875 C 185.539062 30.789062 191.1875 17.859375 191.1875 0.421875 L 191.1875 -15.859375 C 177.757812 -0.992188 153.753906 6.4375 119.171875 6.4375 C 87.453125 6.4375 61.300781 -4.78125 40.71875 -27.21875 C 20.144531 -49.65625 9.859375 -77.160156 9.859375 -109.734375 C 9.859375 -142.316406 20.144531 -169.894531 40.71875 -192.46875 C 61.300781 -215.050781 87.453125 -226.34375 119.171875 -226.34375 C 147.460938 -226.34375 171.039062 -217.625 189.90625 -200.1875 L 191.1875 -200.1875 L 191.1875 -219.90625 L 267.0625 -219.90625 L 267.0625 6 C 267.0625 41.71875 255.203125 69.296875 231.484375 88.734375 C 207.765625 108.171875 176.472656 117.890625 137.609375 117.890625 C 74.734375 117.890625 34.148438 96.597656 15.859375 54.015625 Z M 105.234375 -147.03125 C 95.378906 -137.3125 90.453125 -124.878906 90.453125 -109.734375 C 90.453125 -94.585938 95.164062 -82.226562 104.59375 -72.65625 C 114.019531 -63.082031 126.453125 -58.296875 141.890625 -58.296875 C 156.753906 -58.296875 168.972656 -63.15625 178.546875 -72.875 C 188.117188 -82.59375 192.90625 -94.878906 192.90625 -109.734375 C 192.90625 -124.878906 187.972656 -137.3125 178.109375 -147.03125 C 168.253906 -156.75 156.179688 -161.609375 141.890625 -161.609375 C 127.316406 -161.609375 115.097656 -156.75 105.234375 -147.03125 Z M 105.234375 -147.03125 "/></g></g></g><g fill="#ffffff" fill-opacity="1"><g transform="translate(1958.070598, 778.216914)"><g><path d="M 97.3125 -219.90625 L 97.3125 -115.3125 C 97.3125 -93.59375 100.597656 -78.160156 107.171875 -69.015625 C 113.742188 -59.867188 124.890625 -55.296875 140.609375 -55.296875 C 156.328125 -55.296875 167.472656 -59.867188 174.046875 -69.015625 C 180.617188 -78.160156 183.90625 -93.59375 183.90625 -115.3125 L 183.90625 -219.90625 L 259.78125 -219.90625 L 259.78125 -96.875 C 259.78125 -60.300781 250.273438 -33.9375 231.265625 -17.78125 C 212.265625 -1.632812 182.046875 6.4375 140.609375 6.4375 C 99.171875 6.4375 68.945312 -1.632812 49.9375 -17.78125 C 30.9375 -33.9375 21.4375 -60.300781 21.4375 -96.875 L 21.4375 -219.90625 Z M 97.3125 -219.90625 "/></g></g></g><g fill="#ffffff" fill-opacity="1"><g transform="translate(2239.277646, 778.216914)"><g><path d="M 40.71875 -27.21875 C 20.144531 -49.65625 9.859375 -77.160156 9.859375 -109.734375 C 9.859375 -142.316406 20.144531 -169.894531 40.71875 -192.46875 C 61.300781 -215.050781 87.453125 -226.34375 119.171875 -226.34375 C 148.316406 -226.34375 172.320312 -217.195312 191.1875 -198.90625 L 191.1875 -219.90625 L 267.0625 -219.90625 L 267.0625 0 L 192.046875 0 L 192.046875 -24.859375 L 191.1875 -24.859375 C 172.320312 -3.992188 148.316406 6.4375 119.171875 6.4375 C 87.453125 6.4375 61.300781 -4.78125 40.71875 -27.21875 Z M 105.234375 -147.03125 C 95.378906 -137.3125 90.453125 -124.878906 90.453125 -109.734375 C 90.453125 -94.585938 95.164062 -82.226562 104.59375 -72.65625 C 114.019531 -63.082031 126.453125 -58.296875 141.890625 -58.296875 C 156.753906 -58.296875 168.972656 -63.15625 178.546875 -72.875 C 188.117188 -82.59375 192.90625 -94.878906 192.90625 -109.734375 C 192.90625 -124.878906 187.972656 -137.3125 178.109375 -147.03125 C 168.253906 -156.75 156.179688 -161.609375 141.890625 -161.609375 C 127.316406 -161.609375 115.097656 -156.75 105.234375 -147.03125 Z M 105.234375 -147.03125 "/></g></g></g></svg>