<svg xmlns="http://www.w3.org/2000/svg" xmlns:xlink="http://www.w3.org/1999/xlink" width="3500" zoomAndPan="magnify" viewBox="0 0 2625 899.99999" height="1200" preserveAspectRatio="xMidYMid meet" version="1.0"><defs><g/><clipPath id="92e41457f0"><path d="M 1005.085938 36 L 1531.585938 36 L 1531.585938 601.40625 L 1005.085938 601.40625 Z M 1005.085938 36 " clip-rule="nonzero"/></clipPath><clipPath id="1aae1eaf64"><rect x="0" width="607" y="0" height="480"/></clipPath></defs><g clip-path="url(#92e41457f0)"><path fill="#5ce1e6" d="M 1252.015625 92.582031 C 1252.480469 92.667969 1252.816406 92.136719 1252.535156 91.746094 C 1246.625 83.601562 1242.40625 74.769531 1239.855469 65.28125 C 1236.484375 52.746094 1233.867188 33.238281 1254.441406 36.359375 C 1260.058594 37.210938 1265.515625 38.632812 1270.828125 40.621094 C 1331.085938 63.167969 1349.085938 79.070312 1398.285156 156.378906 C 1398.894531 157.339844 1399.960938 157.910156 1401.105469 157.894531 C 1405.542969 157.835938 1410.019531 157.917969 1414.511719 158.128906 C 1459.859375 160.269531 1487.167969 192.816406 1511.355469 226.976562 C 1518.414062 236.945312 1518.484375 246.285156 1512.300781 257.273438 C 1507.75 265.347656 1503.324219 271.476562 1498.996094 275.640625 C 1482.621094 291.394531 1463.113281 301.203125 1440.472656 305.382812 C 1440.097656 305.449219 1439.792969 305.71875 1439.671875 306.074219 L 1433.019531 326.867188 C 1432.753906 327.703125 1433.339844 328.566406 1434.214844 328.613281 C 1479.4375 331.089844 1485.167969 329.46875 1505.949219 335.335938 C 1517.753906 338.667969 1537.304688 351.144531 1530.378906 365.683594 C 1527.035156 372.707031 1516.269531 377.511719 1508.425781 378.023438 C 1507.589844 378.078125 1507.339844 379.179688 1508.050781 379.609375 C 1518.910156 386.164062 1525.480469 401.890625 1515.507812 412.5625 C 1511.527344 416.820312 1506.554688 419.035156 1500.5625 419.214844 C 1495.074219 419.375 1490.777344 418.816406 1487.671875 417.539062 C 1477.445312 413.328125 1469 408.9375 1460.335938 407.800781 C 1451.027344 406.582031 1442.59375 406.746094 1435.035156 408.335938 C 1411.28125 413.328125 1388.808594 420.722656 1368.71875 408.835938 C 1368.238281 408.550781 1367.617188 408.605469 1367.203125 408.980469 C 1361.863281 413.804688 1359.125 416.199219 1359.039062 416.273438 C 1354.011719 420.890625 1349.4375 423.453125 1344.648438 427.542969 C 1342.867188 429.0625 1339.960938 431.164062 1335.945312 433.835938 C 1307.558594 452.714844 1278.746094 465.484375 1245.628906 471.03125 C 1244.664062 471.195312 1243.804688 471.726562 1243.242188 472.53125 C 1236.515625 482.101562 1228.597656 492.960938 1219.132812 500.417969 C 1200.921875 514.765625 1180.722656 523.035156 1158.523438 525.183594 C 1151.515625 525.863281 1140.457031 525.382812 1132.417969 526.308594 C 1131.667969 526.394531 1130.976562 526.742188 1130.476562 527.308594 C 1127.558594 530.589844 1127.789062 533.230469 1118.976562 559.40625 C 1116.582031 566.515625 1111.074219 575.828125 1102.25 587.203125 C 1101.664062 587.957031 1098.738281 590.503906 1093.457031 594.851562 C 1083.046875 603.429688 1063.5625 605.691406 1059.488281 588.683594 C 1059.277344 587.792969 1058.152344 587.46875 1057.492188 588.132812 C 1054.679688 590.933594 1052.019531 593.179688 1049.503906 594.871094 C 1035.617188 604.21875 1015.476562 602.007812 1007.066406 586.882812 C 998.867188 572.144531 1018.515625 561.679688 1021.9375 554.839844 C 1025.34375 548.023438 1030.421875 542.921875 1047.1875 484.941406 C 1052.863281 465.3125 1067.546875 465.691406 1084.648438 462.742188 C 1090.566406 461.722656 1093.820312 458.265625 1094.421875 452.363281 C 1096.164062 435.230469 1087.878906 423.445312 1088.429688 395.105469 C 1088.445312 394.445312 1087.984375 393.890625 1087.359375 393.753906 C 1079.554688 391.996094 1071.628906 390.046875 1065.285156 385.121094 C 1056.058594 377.960938 1051.039062 368.363281 1050.199219 356.339844 C 1047.796875 321.917969 1086.328125 302.609375 1115.355469 325.902344 C 1115.800781 326.257812 1116.425781 326.222656 1116.835938 325.828125 C 1136.480469 307.046875 1159.488281 293.515625 1185.84375 285.191406 C 1208.148438 278.148438 1230.726562 273.722656 1253.601562 271.941406 C 1275.179688 270.265625 1294.984375 267.4375 1313.425781 257.695312 C 1331.269531 248.269531 1330.46875 229.152344 1332.71875 212.707031 C 1333.15625 209.535156 1334.324219 206.5625 1336.285156 203.8125 C 1336.515625 203.488281 1336.339844 203.03125 1335.949219 202.957031 C 1299.050781 195.851562 1263.097656 186.742188 1231.277344 168.933594 C 1211.246094 157.722656 1193.625 141.324219 1178.40625 119.753906 C 1173.953125 113.441406 1170.402344 107.433594 1174.769531 100.925781 C 1180.480469 92.417969 1190.820312 91.808594 1201.699219 90.617188 C 1218.136719 88.816406 1234.933594 89.386719 1252.019531 92.578125 Z M 1387.121094 161.128906 C 1388.03125 160.929688 1388.445312 159.878906 1387.90625 159.113281 C 1368.589844 131.609375 1376.671875 140.550781 1350.515625 106.257812 C 1336.363281 87.710938 1318.921875 73.535156 1298.214844 63.714844 C 1284.074219 57.007812 1267.648438 50.09375 1251.160156 46.507812 C 1250.015625 46.257812 1248.890625 46.9375 1248.574219 48.058594 C 1245.964844 57.207031 1254.644531 77.101562 1260.183594 84.703125 C 1262.179688 87.449219 1265.476562 95.390625 1270.683594 96.972656 C 1311.035156 109.230469 1335.351562 130.445312 1367.777344 158.972656 C 1369.113281 160.148438 1371.113281 161.46875 1373.730469 162.949219 C 1374.550781 163.414062 1375.496094 163.554688 1376.425781 163.359375 L 1387.125 161.128906 Z M 1414.53125 350.066406 L 1427.976562 308.074219 C 1428.046875 307.859375 1427.871094 307.628906 1427.636719 307.628906 L 1403.847656 307.84375 C 1400.746094 307.878906 1398.21875 305.382812 1398.125 302.261719 C 1398.015625 298.589844 1400.761719 296.292969 1403.726562 296.414062 C 1412.65625 296.78125 1419.09375 296.863281 1423.035156 296.664062 C 1446.648438 295.460938 1467.601562 287.503906 1485.910156 272.839844 C 1492.027344 267.9375 1497.109375 260.855469 1501.230469 254.1875 C 1503.441406 250.601562 1506.972656 240.847656 1504.296875 236.5 C 1493.683594 219.265625 1480.871094 203.859375 1465.90625 190.28125 C 1449.382812 175.292969 1428.691406 168.078125 1403.816406 168.601562 C 1392.867188 168.832031 1384.003906 170.597656 1377.210938 173.859375 C 1373.984375 175.410156 1370.4375 175.535156 1367.972656 173.46875 C 1366.78125 172.46875 1362.074219 168.3125 1353.835938 161.003906 C 1347.152344 155.082031 1340.980469 150.964844 1335.769531 145.617188 C 1329.550781 139.230469 1320.847656 133.527344 1313.660156 128.855469 C 1278.691406 106.125 1240.265625 97.027344 1198.34375 101.613281 C 1193.796875 102.109375 1189.429688 103.328125 1185.273438 105.25 C 1183.847656 105.910156 1183.332031 107.65625 1184.167969 108.992188 C 1199.25 133.144531 1215.53125 147.054688 1238.785156 161.273438 C 1244.648438 164.863281 1249.765625 166.464844 1255.492188 169.316406 C 1259.074219 171.101562 1263.375 172.816406 1268.402344 174.472656 C 1294.265625 182.96875 1321.457031 189.609375 1349.945312 194.511719 C 1351.90625 194.851562 1354.414062 195.863281 1357.507812 197.511719 C 1358.148438 197.851562 1358.417969 198.632812 1358.132812 199.292969 L 1355.707031 205.050781 C 1355.261719 206.105469 1354.210938 206.800781 1353.066406 206.800781 L 1347.183594 206.800781 C 1346.683594 206.800781 1346.226562 207.070312 1346.007812 207.511719 C 1342.980469 213.628906 1342.671875 218.960938 1341.316406 229.910156 C 1338.605469 251.804688 1327.980469 264.953125 1307.402344 272.578125 C 1293.726562 277.648438 1280.351562 280.515625 1264.480469 281.921875 C 1219.492188 285.914062 1173.355469 293.824219 1138.179688 321.472656 C 1110.375 343.324219 1097.585938 372.167969 1099.828125 407.957031 C 1100.378906 416.765625 1101.992188 423.292969 1103.714844 432.171875 C 1105.292969 440.300781 1106.289062 450.679688 1104.980469 456.152344 C 1100.683594 474.148438 1082.546875 473.449219 1070.03125 476.214844 C 1063.664062 477.621094 1059.597656 481.582031 1057.851562 488.089844 C 1053.804688 503.175781 1047.773438 521.214844 1039.824219 542.207031 C 1037.375 548.679688 1034.207031 554.992188 1030.320312 561.109375 C 1026.648438 566.886719 1021.28125 571.863281 1016.875 577.050781 C 1015.875 578.226562 1015.679688 579.886719 1016.375 581.261719 C 1021.007812 590.394531 1032.03125 591.4375 1040.449219 587.429688 C 1053.980469 580.988281 1062.246094 567.132812 1069.53125 553.230469 C 1073.347656 545.949219 1077.746094 526.242188 1081.855469 520.757812 C 1085.503906 515.886719 1089.019531 512.730469 1092.394531 511.289062 C 1099.898438 508.074219 1106.53125 506.410156 1112.328125 506.261719 C 1143.410156 505.46875 1170.3125 498.554688 1191.980469 474.96875 C 1204.726562 461.09375 1213.277344 444.703125 1217.746094 425.824219 C 1218.296875 423.503906 1218.6875 418.28125 1218.90625 410.152344 C 1218.984375 407.332031 1221.5625 405.246094 1224.34375 405.746094 L 1224.503906 405.765625 C 1227.554688 406.335938 1229.726562 409.046875 1229.585938 412.148438 C 1228.386719 438.734375 1219.957031 450.351562 1216.035156 463.363281 C 1215.878906 463.878906 1216.285156 464.398438 1216.820312 464.363281 C 1261.171875 461.324219 1301.285156 446.308594 1337.21875 419.675781 C 1342.082031 416.070312 1352.125 410.066406 1356.15625 403.789062 C 1356.460938 403.308594 1356.421875 402.683594 1356.066406 402.257812 C 1353.609375 399.3125 1351.035156 397.109375 1348.34375 395.621094 C 1347.703125 395.269531 1347.167969 394.785156 1346.757812 394.175781 L 1339.589844 383.691406 C 1338.214844 381.671875 1338.507812 378.71875 1341.210938 376.953125 C 1343.488281 375.464844 1346.523438 375.917969 1348.167969 378.09375 C 1351.996094 383.164062 1355.011719 386.765625 1357.222656 388.917969 C 1371.28125 402.609375 1388.46875 407.273438 1408.722656 402.863281 C 1414.179688 401.675781 1422.773438 400 1434.503906 397.835938 C 1451.390625 394.722656 1467.363281 396.832031 1482.402344 404.167969 C 1490.351562 408.042969 1502.554688 412.445312 1509.078125 404.042969 C 1512.273438 399.925781 1505.851562 391.539062 1502.976562 388.847656 C 1490.972656 377.617188 1476.910156 371.402344 1460.824219 370.269531 C 1439.375 368.757812 1429.589844 371.398438 1411.589844 362.90625 C 1410.609375 362.441406 1409.714844 361.746094 1409.003906 360.90625 C 1405.824219 357.152344 1401.550781 354.863281 1401.265625 348.996094 C 1400.945312 342.363281 1408.03125 342.730469 1411.109375 346.714844 C 1412.664062 348.726562 1413.5625 349.894531 1413.820312 350.207031 C 1414.027344 350.464844 1414.425781 350.386719 1414.53125 350.082031 Z M 1061.199219 360.535156 C 1062.746094 368.183594 1069.261719 377.171875 1077.019531 379.847656 C 1079.710938 380.773438 1083.324219 381.824219 1087.859375 382.949219 C 1088.589844 383.128906 1089.304688 382.683594 1089.464844 381.949219 C 1091.277344 373.675781 1093.824219 365.601562 1097.132812 357.714844 C 1100.4375 349.835938 1104.378906 342.332031 1109.082031 335.285156 C 1109.488281 334.675781 1109.296875 333.835938 1108.671875 333.445312 C 1104.695312 330.980469 1101.417969 329.148438 1098.867188 327.867188 C 1091.539062 324.1875 1080.558594 325.839844 1074.007812 330.09375 C 1063.667969 336.816406 1058.695312 348.105469 1061.207031 360.535156 Z M 1428.546875 339.011719 L 1422.660156 354.4375 C 1422.429688 355.007812 1422.605469 355.667969 1423.089844 356.078125 C 1425.886719 358.445312 1428.457031 357.597656 1461.925781 359.550781 C 1472.78125 360.1875 1482.9375 362.945312 1492.414062 367.773438 C 1493.820312 368.492188 1495.410156 368.777344 1496.980469 368.59375 C 1504.078125 367.769531 1510.085938 366.632812 1515.007812 365.207031 C 1520.285156 363.675781 1522.4375 360.414062 1519.019531 355.878906 C 1511.074219 345.351562 1487.726562 341.484375 1475.101562 341.242188 C 1431.542969 340.394531 1429.117188 337.484375 1428.542969 339.011719 Z M 1228.210938 473.90625 L 1207.828125 475.496094 C 1206.828125 475.566406 1205.902344 476.046875 1205.261719 476.8125 C 1185.511719 500.429688 1159.953125 513.332031 1128.550781 515.457031 C 1123.808594 515.777344 1116.746094 516.417969 1107.347656 517.363281 C 1097.078125 518.398438 1090.527344 523.566406 1087.714844 532.875 C 1082.710938 549.457031 1078.679688 560.960938 1071.148438 573.121094 C 1069.4375 575.882812 1066.851562 586.246094 1071.363281 588.6875 C 1082.097656 594.5 1087.898438 584.199219 1094.722656 578.382812 C 1096.3125 577.027344 1097.6875 575.441406 1098.789062 573.671875 C 1109.625 556.316406 1110.429688 551.03125 1117.53125 528.539062 C 1119.25 523.105469 1122.652344 519.269531 1127.695312 516.933594 C 1129.414062 516.136719 1128.265625 516.78125 1153.730469 514.8125 C 1184.703125 512.410156 1209.730469 499.105469 1228.726562 474.886719 C 1229.050781 474.476562 1228.726562 473.871094 1228.210938 473.90625 Z M 1228.210938 473.90625 " fill-opacity="1" fill-rule="nonzero"/></g><path fill="#5ce1e6" d="M 1361.910156 189.480469 C 1359.820312 192.328125 1354.28125 190.742188 1350.125 189.996094 C 1326.746094 185.796875 1302.347656 179.558594 1276.90625 171.253906 C 1273.304688 170.078125 1267.261719 167.617188 1258.769531 163.890625 C 1241.335938 156.238281 1226.292969 144.285156 1214.28125 130.066406 C 1211.675781 126.984375 1208.820312 124.199219 1207.21875 120.488281 C 1206.433594 118.671875 1207.101562 116.539062 1208.789062 115.476562 C 1211.703125 113.652344 1214.746094 112.511719 1217.902344 112.089844 C 1250.332031 107.742188 1280.832031 118.953125 1308.019531 137.230469 C 1325.816406 149.195312 1342.855469 163.078125 1359.109375 178.941406 C 1362.230469 181.988281 1364.828125 185.5 1361.910156 189.480469 Z M 1342.492188 177.015625 C 1342.136719 176.28125 1341.441406 175.5 1340.421875 174.660156 C 1325.328125 162.191406 1311.519531 151.976562 1298.984375 144.042969 C 1274.453125 128.523438 1250.679688 120.175781 1222.007812 121.703125 C 1221.578125 121.722656 1221.363281 122.238281 1221.632812 122.574219 C 1231.230469 134.515625 1242.65625 143.789062 1255.617188 150.660156 C 1280.800781 164.007812 1312.902344 172.570312 1341.832031 177.871094 C 1342.3125 177.957031 1342.707031 177.457031 1342.492188 177.015625 Z M 1342.492188 177.015625 " fill-opacity="1" fill-rule="nonzero"/><path fill="#5ce1e6" d="M 1439.34375 208.414062 C 1443.808594 207.667969 1448.089844 210.949219 1448.902344 215.75 C 1449.714844 220.558594 1446.753906 225.070312 1442.289062 225.820312 C 1437.820312 226.570312 1433.539062 223.289062 1432.726562 218.484375 C 1431.914062 213.679688 1434.875 209.164062 1439.34375 208.414062 Z M 1439.34375 208.414062 " fill-opacity="1" fill-rule="nonzero"/><g transform="matrix(1, 0, 0, 1, 1009, 420)"><g clip-path="url(#1aae1eaf64)"><g fill="#5ce1e6" fill-opacity="1"><g transform="translate(0.61604, 411.499043)"><g><path d="M 113.203125 -151.09375 L 113.203125 0 L 27.390625 0 L 27.390625 -376.59375 L 113.203125 -376.59375 L 113.203125 -226.421875 L 234.640625 -226.421875 L 234.640625 -376.59375 L 320.453125 -376.59375 L 320.453125 0 L 234.640625 0 L 234.640625 -151.09375 Z M 113.203125 -151.09375 "/></g></g></g><g fill="#2e303d" fill-opacity="1"><g transform="translate(348.45902, 411.499043)"><g><path d="M 113.203125 -376.59375 L 113.203125 -75.3125 L 242.84375 -75.3125 L 242.84375 0 L 27.390625 0 L 27.390625 -376.59375 Z M 113.203125 -376.59375 "/></g></g></g></g></g></svg>